<svg width="69" height="69" viewBox="0 0 69 69" fill="none" xmlns="http://www.w3.org/2000/svg">
<path d="M67.3245 30.4337L62.6185 25.7286C61.5016 24.6117 60.5863 22.4046 60.5863 20.8218V14.1676C60.5863 11.0023 58.0004 8.41643 54.8358 8.41474H48.1788C46.5978 8.41474 44.3881 7.49782 43.271 6.38178L38.5658 1.67672C36.3302 -0.558905 32.6696 -0.558905 30.434 1.67672L25.7288 6.38515C24.6109 7.50203 22.3986 8.41643 20.821 8.41643H14.1667C11.0055 8.41643 8.4162 11.0023 8.4162 14.1676V20.8219C8.4162 22.3985 7.50111 24.6126 6.38403 25.7288L1.67802 30.4339C-0.559339 32.6695 -0.559339 36.3299 1.67802 38.5691L6.38403 43.2742C7.50178 44.391 8.4162 46.6043 8.4162 48.181V54.8353C8.4162 57.9973 11.0055 60.5865 14.1667 60.5865H20.8211C22.4022 60.5865 24.6119 61.5016 25.729 62.6178L30.4341 67.3246C32.6698 69.5585 36.3303 69.5585 38.566 67.3246L43.2712 62.6178C44.3891 61.5009 46.598 60.5865 48.179 60.5865H54.836C58.0006 60.5865 60.5865 57.9973 60.5865 54.8353V48.181C60.5865 46.5975 61.5024 44.3904 62.6186 43.2742L67.3247 38.5691C69.5585 36.3299 69.5585 32.6693 67.3245 30.4337ZM29.9355 47.4381L17.2485 34.7498L21.3146 30.6847L29.9365 39.3064L47.6847 21.5628L51.7498 25.6279L29.9355 47.4381Z" fill="#013D7A"/>
</svg>
