<svg width="39" height="39" viewBox="0 0 39 39" fill="none" xmlns="http://www.w3.org/2000/svg">
<g clip-path="url(#clip0_79_2460)">
<path d="M28.3317 16.8828V9.50213C28.3317 9.29087 28.2341 9.09568 28.0961 8.94126L19.8213 0.252021C19.6669 0.0895613 19.4473 0 19.228 0H6.10862C3.6866 0 1.75195 1.97511 1.75195 4.39743V29.2053C1.75195 31.6276 3.6866 33.5703 6.10862 33.5703H16.4644C18.4232 36.8216 21.9836 38.9999 26.0394 38.9999C32.2007 38.9999 37.2322 33.9928 37.2322 27.8235C37.2406 22.4344 33.3713 17.9313 28.3317 16.8828ZM20.0409 2.85317L25.5925 8.69727H21.9916C20.9187 8.69727 20.0409 7.81147 20.0409 6.73852V2.85317ZM6.10862 31.9445C4.58876 31.9445 3.37774 30.7252 3.37774 29.2053V4.39743C3.37774 2.86924 4.58876 1.62579 6.10862 1.62579H18.4151V6.73852C18.4151 8.71363 20.0165 10.3231 21.9916 10.3231H26.7059V16.6712C26.4623 16.6632 26.2671 16.6388 26.0558 16.6388C23.219 16.6388 20.6098 17.7281 18.6427 19.4351H8.31968C7.87247 19.4351 7.50679 19.8008 7.50679 20.2477C7.50679 20.6949 7.87247 21.0606 8.31968 21.0606H17.1309C16.5537 21.8735 16.074 22.6864 15.7003 23.5805H8.31968C7.87247 23.5805 7.50679 23.9462 7.50679 24.3934C7.50679 24.8403 7.87247 25.2063 8.31968 25.2063H15.1719C14.9686 26.0192 14.863 26.9214 14.863 27.8235C14.863 29.2866 15.1475 30.7335 15.6595 31.9529H6.10862V31.9445ZM26.0478 37.3825C20.7806 37.3825 16.4968 33.0987 16.4968 27.8316C16.4968 22.5644 20.7723 18.2806 26.0478 18.2806C31.323 18.2806 35.5984 22.5644 35.5984 27.8316C35.5984 33.0987 31.3149 37.3825 26.0478 37.3825Z" fill="#003E7D"/>
<path d="M8.31973 16.9884H16.5537C17.0009 16.9884 17.3666 16.6224 17.3666 16.1755C17.3666 15.7283 17.0009 15.3626 16.5537 15.3626H8.31973C7.87252 15.3626 7.50684 15.7283 7.50684 16.1755C7.50684 16.6224 7.87252 16.9884 8.31973 16.9884Z" fill="#003E7D"/>
<path d="M30.2094 27.6608L26.8688 31.2617V22.3856C26.8688 21.9384 26.5028 21.5727 26.0559 21.5727C25.6087 21.5727 25.243 21.9384 25.243 22.3856V31.2617L21.8778 27.6608C21.5689 27.3359 21.0488 27.3115 20.7236 27.6203C20.3984 27.9292 20.374 28.4412 20.6831 28.7665L25.4382 33.8792C25.5926 34.0417 25.8039 34.1392 26.0315 34.1392C26.2591 34.1392 26.4704 34.0417 26.6248 33.8792L31.3882 28.7665C31.6971 28.4412 31.6807 27.9211 31.3555 27.6203C31.0222 27.3115 30.5185 27.3359 30.2094 27.6608Z" fill="#003E7D"/>
</g>
<defs>
<clipPath id="clip0_79_2460">
<rect width="39" height="39" fill="white"/>
</clipPath>
</defs>
</svg>
