<svg width="22" height="22" viewBox="0 0 22 22" fill="none" xmlns="http://www.w3.org/2000/svg">
<g clip-path="url(#clip0_51_140)">
<path d="M10.925 0.150391C4.90098 0.150391 5.59196e-08 5.05137 1.24653e-07 11.0754C1.93381e-07 17.099 4.90098 22.0004 10.925 22.0004C16.9486 22.0004 21.85 17.099 21.85 11.0754C21.85 5.05137 16.9495 0.15039 10.925 0.150391ZM13.6419 11.46L11.8645 11.46L11.8645 17.7951L9.23076 17.7951C9.23076 17.7951 9.23076 14.3336 9.23076 11.46L7.97878 11.46L7.97878 9.22096L9.23076 9.22096L9.23076 7.77272C9.23076 6.73549 9.72363 5.11474 11.8887 5.11474L13.8404 5.12222L13.8404 7.29569C13.8404 7.29569 12.6544 7.29569 12.4239 7.29569C12.1933 7.29569 11.8654 7.41099 11.8654 7.90562L11.8654 9.2214L13.8721 9.2214L13.6419 11.46Z" fill="white"/>
</g>
<defs>
<clipPath id="clip0_51_140">
<rect width="21.85" height="21.85" fill="white" transform="translate(0 0.150391)"/>
</clipPath>
</defs>
</svg>
