<svg width="24" height="24" viewBox="0 0 24 24" fill="none" xmlns="http://www.w3.org/2000/svg">
<g clip-path="url(#clip0_78_71)">
<path d="M11.695 0.230957C5.2464 0.230957 5.98608e-08 5.47736 1.33439e-07 11.926C2.07011e-07 18.3741 5.2464 23.621 11.695 23.621C18.1431 23.621 23.39 18.3741 23.39 11.926C23.39 5.47736 18.1441 0.230957 11.695 0.230957ZM14.6034 12.3377L12.7008 12.3377L12.7008 19.1193L9.88135 19.1193C9.88135 19.1193 9.88135 15.4138 9.88135 12.3377L8.54113 12.3377L8.54113 9.94083L9.88135 9.94083L9.88135 8.39051C9.88135 7.28018 10.409 5.5452 12.7267 5.5452L14.8159 5.5532L14.8159 7.87986C14.8159 7.87986 13.5463 7.87986 13.2995 7.87986C13.0526 7.87986 12.7017 8.00328 12.7017 8.53278L12.7017 9.9413L14.8498 9.9413L14.6034 12.3377Z" fill="#E2CF8A"/>
</g>
<defs>
<clipPath id="clip0_78_71">
<rect width="23.39" height="23.39" fill="white" transform="translate(0 0.230957)"/>
</clipPath>
</defs>
</svg>
