<svg width="25" height="24" viewBox="0 0 25 24" fill="none" xmlns="http://www.w3.org/2000/svg">
<g clip-path="url(#clip0_78_75)">
<path d="M14.8805 11.926C14.8805 13.1623 13.8783 14.1645 12.642 14.1645C11.4057 14.1645 10.4035 13.1623 10.4035 11.926C10.4035 10.6897 11.4057 9.6875 12.642 9.6875C13.8783 9.6875 14.8805 10.6897 14.8805 11.926Z" fill="#E2CF8A"/>
<path d="M17.8771 7.96551C17.7695 7.67392 17.5978 7.40999 17.3747 7.19335C17.1581 6.97028 16.8943 6.79861 16.6026 6.69101C16.3659 6.59911 16.0105 6.48971 15.3557 6.45991C14.6474 6.42761 14.4351 6.42065 12.642 6.42065C10.8487 6.42065 10.6364 6.42744 9.92829 6.45974C9.27355 6.48972 8.9179 6.59911 8.68145 6.69101C8.38968 6.79861 8.12575 6.97029 7.90929 7.19335C7.68622 7.40999 7.51455 7.67374 7.40677 7.96551C7.31487 8.20214 7.20547 8.55779 7.17567 9.21253C7.14337 9.92062 7.13641 10.133 7.13641 11.9262C7.13641 13.7193 7.14337 13.9317 7.17567 14.64C7.20547 15.2947 7.31487 15.6502 7.40677 15.8868C7.51455 16.1786 7.68604 16.4423 7.90911 16.659C8.12575 16.882 8.3895 17.0537 8.68127 17.1613C8.9179 17.2534 9.27355 17.3628 9.92829 17.3926C10.6364 17.4249 10.8486 17.4317 12.6418 17.4317C14.4353 17.4317 14.6476 17.4249 15.3555 17.3926C16.0103 17.3628 16.3659 17.2534 16.6026 17.1613C17.1882 16.9354 17.6511 16.4725 17.8771 15.8868C17.969 15.6502 18.0783 15.2947 18.1083 14.64C18.1406 13.9317 18.1474 13.7193 18.1474 11.9262C18.1474 10.133 18.1406 9.92062 18.1083 9.21253C18.0785 8.55779 17.9691 8.20214 17.8771 7.96551ZM12.642 15.3745C10.7374 15.3745 9.19342 13.8307 9.19342 11.9261C9.19342 10.0215 10.7374 8.47767 12.642 8.47767C14.5464 8.47767 16.0904 10.0214 16.0904 11.9261C16.0904 13.8307 14.5464 15.3745 12.642 15.3745ZM16.2267 9.14722C15.7817 9.14722 15.4208 8.78639 15.4208 8.34133C15.4208 7.89627 15.7817 7.53544 16.2267 7.53544C16.6718 7.53544 17.0326 7.89627 17.0326 8.34133C17.0324 8.78639 16.6718 9.14722 16.2267 9.14722Z" fill="#E2CF8A"/>
<path d="M12.642 0.230957C6.18404 0.230957 0.947022 5.46797 0.947022 11.926C0.947022 18.3839 6.18404 23.621 12.642 23.621C19.1 23.621 24.337 18.3839 24.337 11.926C24.337 5.46797 19.1 0.230957 12.642 0.230957ZM19.317 14.6946C19.2845 15.4095 19.1708 15.8976 19.0049 16.3248C18.656 17.2269 17.9429 17.94 17.0409 18.2888C16.6138 18.4548 16.1256 18.5683 15.4109 18.6009C14.6947 18.6336 14.466 18.6414 12.6422 18.6414C10.8182 18.6414 10.5897 18.6336 9.87335 18.6009C9.15865 18.5683 8.6704 18.4548 8.24337 18.2888C7.7951 18.1202 7.3893 17.8559 7.05381 17.5142C6.71226 17.1789 6.44797 16.7729 6.27933 16.3248C6.11337 15.8978 5.9997 15.4095 5.96722 14.6948C5.93421 13.9785 5.92653 13.7497 5.92653 11.926C5.92653 10.1022 5.93421 9.87341 5.96704 9.15728C5.99952 8.4424 6.11301 7.95434 6.27898 7.52713C6.44761 7.07903 6.71208 6.67306 7.05381 6.33775C7.38912 5.99601 7.7951 5.73173 8.24319 5.56309C8.6704 5.39713 9.15847 5.28363 9.87335 5.25098C10.5895 5.21832 10.8182 5.21047 12.642 5.21047C14.4658 5.21047 14.6946 5.21832 15.4107 5.25116C16.1256 5.28363 16.6136 5.39713 17.0409 5.56291C17.4889 5.73155 17.8949 5.99601 18.2304 6.33775C18.572 6.67324 18.8364 7.07903 19.0049 7.52713C19.171 7.95434 19.2845 8.4424 19.3172 9.15728C19.3498 9.87341 19.3575 10.1022 19.3575 11.926C19.3575 13.7497 19.3498 13.9785 19.317 14.6946Z" fill="#E2CF8A"/>
</g>
<defs>
<clipPath id="clip0_78_75">
<rect width="23.39" height="23.39" fill="white" transform="translate(0.947021 0.230957)"/>
</clipPath>
</defs>
</svg>
