<svg width="358" height="55" viewBox="0 0 358 55" fill="none" xmlns="http://www.w3.org/2000/svg">
<path d="M237.159 16.7005H236.506V15.4773H234.637V16.7005H233.984C230.839 16.7005 229 18.5204 229 21.1756C229 23.8905 230.78 25.6508 233.984 25.6508H234.637V27.1723H236.506V25.6508H237.159C240.304 25.6508 242.143 23.8309 242.143 21.1756C242.143 18.4607 240.363 16.7005 237.159 16.7005ZM234.014 24.0397C231.967 24.0397 230.899 23.085 230.899 21.1756C230.899 19.3259 232.026 18.3116 234.014 18.3116H234.637V24.0397H234.014ZM237.129 24.0397H236.506V18.3116H237.129C239.176 18.3116 240.244 19.2663 240.244 21.1756C240.244 23.0254 239.117 24.0397 237.129 24.0397Z" fill="#003E7D"/>
<path d="M251.489 25.4419C251.103 25.4419 250.925 25.2629 250.925 24.8751V20.8475C250.925 18.9978 249.62 17.8939 247.484 17.8939C245.941 17.8939 244.665 18.4309 243.627 19.4154L244.724 20.579C245.437 19.8331 246.386 19.3856 247.395 19.3856C248.522 19.3856 249.264 19.8629 249.264 20.579C249.264 21.2652 248.611 21.3845 247.276 21.5635C245.555 21.832 243.449 22.3093 243.449 24.5171C243.449 26.0684 244.606 27.1425 246.356 27.1425C247.662 27.1425 248.848 26.5458 249.471 25.6209C249.59 26.6651 250.095 27.053 251.192 27.053C251.489 27.053 251.726 27.0231 251.815 26.9933V25.4419H251.489ZM246.653 25.6806C245.733 25.6806 245.199 25.2331 245.199 24.3977C245.199 23.2342 246.356 23.0552 247.484 22.8762C248.344 22.727 248.878 22.6375 249.204 22.4287V23.5922C249.204 24.7259 248.018 25.6806 246.653 25.6806Z" fill="#003E7D"/>
<path d="M259.856 26.9933H262.021L258.135 21.6232L261.843 18.0431H259.589L255.583 22.0408V18.0431H253.803V26.9933H255.583V24.0696L256.859 22.8464L259.856 26.9933Z" fill="#003E7D"/>
<path d="M269.765 18.0431L267.332 25.5314L264.217 18.0431H262.259L266.442 27.59C266.116 28.1866 265.76 28.5148 265.285 28.5148C264.514 28.5148 264.306 27.9181 264.336 27.232L262.704 27.5005C262.704 28.8728 263.475 30.1259 265.255 30.1259C266.768 30.1259 267.747 28.9325 268.311 27.3215L271.604 18.0431H269.765Z" fill="#003E7D"/>
<path d="M280.742 18.0431H273.533V22.6674C273.533 25.1436 273.296 25.3524 272.524 25.3524H272.049V26.9933C272.257 27.0231 272.554 27.053 272.88 27.053C274.601 27.053 275.283 26.0983 275.283 22.8464V19.6243H278.962V26.9933H280.742V18.0431Z" fill="#003E7D"/>
<path d="M287.744 21.4143H285.311V18.0431H283.531V26.9933H287.744C289.702 26.9933 290.948 25.8894 290.948 24.1889C290.948 22.4883 289.732 21.4143 287.744 21.4143ZM287.566 25.5016H285.311V22.8762H287.566C288.605 22.8762 289.139 23.3535 289.139 24.1889C289.139 25.0242 288.605 25.5016 287.566 25.5016Z" fill="#003E7D"/>
<path d="M299.997 18.0431H291.809V19.6243H295.013V26.9933H296.793V19.6243H299.997V18.0431Z" fill="#003E7D"/>
<path d="M302.371 23.085H309.224C309.284 22.8762 309.284 22.727 309.284 22.5182C309.284 19.7138 307.593 17.8939 304.982 17.8939C302.371 17.8939 300.591 19.7734 300.591 22.5182C300.591 25.1734 302.193 27.1425 305.13 27.1425C306.999 27.1425 308.245 26.4264 308.987 25.5314L307.771 24.4574C307.266 25.1137 306.436 25.6209 305.13 25.6209C303.558 25.6209 302.579 24.6364 302.371 23.085ZM304.982 19.3856C306.317 19.3856 307.237 20.2508 307.474 21.7127H302.401C302.668 20.2806 303.587 19.3856 304.982 19.3856Z" fill="#003E7D"/>
<path d="M318.006 18.0431H309.818V19.6243H313.022V26.9933H314.802V19.6243H318.006V18.0431Z" fill="#003E7D"/>
<path d="M330.497 26.9933H332.663L328.776 21.6232L332.485 18.0431H330.23L326.225 22.0408V18.0431H324.445V26.9933H326.225V24.0696L327.5 22.8464L330.497 26.9933Z" fill="#003E7D"/>
<path d="M334.146 16.79H336.104V15H334.146V16.79ZM334.235 26.9933H336.015V18.0431H334.235V26.9933Z" fill="#003E7D"/>
<path d="M345.064 18.0431V21.6232H340.733V18.0431H338.953V26.9933H340.733V23.2342H345.064V26.9933H346.845V18.0431H345.064Z" fill="#003E7D"/>
<path d="M353.49 27.1425C356.161 27.1425 358 25.2629 358 22.5182C358 19.7138 356.22 17.8939 353.49 17.8939C350.82 17.8939 348.981 19.7734 348.981 22.5182C348.981 25.3226 350.761 27.1425 353.49 27.1425ZM353.49 25.6209C351.859 25.6209 350.79 24.3977 350.79 22.5182C350.79 20.6386 351.859 19.4154 353.49 19.4154C355.122 19.4154 356.19 20.6386 356.19 22.5182C356.19 24.3977 355.122 25.6209 353.49 25.6209Z" fill="#003E7D"/>
<path d="M229.742 36.6476H231.7V34.8575H229.742V36.6476ZM229.831 46.8508H231.611V37.9006H229.831V46.8508Z" fill="#003E7D"/>
<path d="M246.386 37.9006H238.197V39.4818H241.402V46.8508H243.182V39.4818H246.386V37.9006Z" fill="#003E7D"/>
<path d="M248.759 42.9426H255.613C255.672 42.7337 255.672 42.5846 255.672 42.3757C255.672 39.5713 253.981 37.7514 251.37 37.7514C248.759 37.7514 246.979 39.631 246.979 42.3757C246.979 45.031 248.581 47 251.519 47C253.388 47 254.634 46.284 255.376 45.389L254.159 44.3149C253.655 44.9713 252.824 45.4785 251.519 45.4785C249.946 45.4785 248.967 44.4939 248.759 42.9426ZM251.37 39.2431C252.705 39.2431 253.625 40.1083 253.862 41.5702H248.789C249.056 40.1382 249.976 39.2431 251.37 39.2431Z" fill="#003E7D"/>
<path d="M265.196 37.9006H257.986V42.5249C257.986 45.0011 257.749 45.21 256.978 45.21H256.503V46.8508C256.711 46.8807 257.007 46.9105 257.334 46.9105C259.055 46.9105 259.737 45.9558 259.737 42.7039V39.4818H263.416V46.8508H265.196V37.9006Z" fill="#003E7D"/>
<path d="M269.112 42.9426H275.966C276.025 42.7337 276.025 42.5846 276.025 42.3757C276.025 39.5713 274.334 37.7514 271.723 37.7514C269.112 37.7514 267.332 39.631 267.332 42.3757C267.332 45.031 268.934 47 271.871 47C273.741 47 274.987 46.284 275.728 45.389L274.512 44.3149C274.008 44.9713 273.177 45.4785 271.871 45.4785C270.299 45.4785 269.32 44.4939 269.112 42.9426ZM271.723 39.2431C273.058 39.2431 273.978 40.1083 274.215 41.5702H269.142C269.409 40.1382 270.329 39.2431 271.723 39.2431Z" fill="#003E7D"/>
<path d="M286.231 42.8531C286.201 40.4962 284.599 38.8255 282.404 38.8255C280.95 38.8255 279.823 39.3625 279.17 40.2873C279.318 38.8255 280.06 38.02 281.632 37.6918L284.214 37.1548C285.252 36.9161 285.845 36.3194 285.934 35.3051L285.964 35.0067L284.273 34.7084L284.214 34.9769C284.154 35.3349 283.976 35.5139 283.65 35.5736L281.543 36.0211C278.814 36.5879 277.568 38.4078 277.568 41.8685C277.568 45.0011 279.259 47 281.929 47C284.481 47 286.261 45.2696 286.231 42.8531ZM281.929 45.4785C280.446 45.4785 279.437 44.3746 279.437 42.7934C279.437 41.2122 280.416 40.2277 281.929 40.2277C283.442 40.2277 284.392 41.242 284.392 42.8829C284.392 44.4641 283.442 45.4785 281.929 45.4785Z" fill="#003E7D"/>
<path d="M295.339 45.2995C294.954 45.2995 294.776 45.1205 294.776 44.7326V40.705C294.776 38.8553 293.47 37.7514 291.334 37.7514C289.791 37.7514 288.516 38.2885 287.477 39.273L288.575 40.4365C289.287 39.6907 290.236 39.2431 291.245 39.2431C292.373 39.2431 293.114 39.7205 293.114 40.4365C293.114 41.1227 292.462 41.242 291.126 41.421C289.406 41.6895 287.299 42.1669 287.299 44.3746C287.299 45.926 288.456 47 290.207 47C291.512 47 292.699 46.4033 293.322 45.4785C293.441 46.5227 293.945 46.9105 295.043 46.9105C295.339 46.9105 295.577 46.8807 295.666 46.8508V45.2995H295.339ZM290.503 45.5381C289.584 45.5381 289.05 45.0906 289.05 44.2553C289.05 43.0917 290.207 42.9127 291.334 42.7337C292.195 42.5846 292.729 42.4951 293.055 42.2862V43.4497C293.055 44.5834 291.868 45.5381 290.503 45.5381Z" fill="#003E7D"/>
<path d="M302.579 37.9006V41.8685H300.383C299.078 41.8685 298.573 41.421 298.573 40.3768V37.9006H296.793V40.3768C296.793 42.3161 298.069 43.4796 300.383 43.4796H302.579V46.8508H304.359V37.9006H302.579Z" fill="#003E7D"/>
<path d="M308.275 42.9426H315.129C315.188 42.7337 315.188 42.5846 315.188 42.3757C315.188 39.5713 313.497 37.7514 310.886 37.7514C308.275 37.7514 306.495 39.631 306.495 42.3757C306.495 45.031 308.097 47 311.034 47C312.903 47 314.149 46.284 314.891 45.389L313.675 44.3149C313.17 44.9713 312.34 45.4785 311.034 45.4785C309.462 45.4785 308.483 44.4939 308.275 42.9426ZM310.886 39.2431C312.221 39.2431 313.141 40.1083 313.378 41.5702H308.305C308.572 40.1382 309.491 39.2431 310.886 39.2431Z" fill="#003E7D"/>
<path d="M323.376 37.9006V41.4807H319.045V37.9006H317.265V46.8508H319.045V43.0917H323.376V46.8508H325.157V37.9006H323.376Z" fill="#003E7D"/>
<path d="M334.057 37.9006V41.4807H329.726V37.9006H327.945V46.8508H329.726V43.0917H334.057V46.8508H335.837V37.9006H334.057Z" fill="#003E7D"/>
<path d="M345.45 37.9006H341.445C339.427 37.9006 338.152 39.0343 338.152 40.7647C338.152 41.958 338.804 42.8232 339.932 43.2409L337.558 46.8508H339.546L341.712 43.4796H343.67V46.8508H345.45V37.9006ZM341.623 42.1371C340.555 42.1371 339.932 41.6299 339.932 40.7348C339.932 39.8995 340.555 39.3923 341.623 39.3923H343.67V42.1371H341.623Z" fill="#003E7D"/>
<path fill-rule="evenodd" clip-rule="evenodd" d="M208 55V1H210V55H208Z" fill="#003E7D"/>
<path d="M0 54H10.2159V3.20792H0V54Z" fill="#003E7D"/>
<path d="M57.5808 54H69.7869L48.6916 23.3911L68.7255 3.20792H55.9887L34.4954 25.797V3.20792H24.2795V54H34.4954V37.6931L41.5272 30.6089L57.5808 54Z" fill="#003E7D"/>
<path d="M76.686 8.55446H87.0346V0H76.686V8.55446ZM77.084 54H86.6366V13.901H77.084V54Z" fill="#003E7D"/>
<path d="M139.441 3.20792H94.4644V12.5644H111.845V54H122.061V12.5644H139.441V3.20792Z" fill="#003E7D"/>
<path d="M169.824 22.8564H158.016V12.1634H183.887V3.20792H147.8V54H169.824C181.101 54 188 48.1188 188 38.2277C188 28.7376 181.101 22.8564 169.824 22.8564ZM168.63 45.5792H157.883V31.0099H168.63C174.6 31.0099 177.651 33.5495 177.651 38.2277C177.651 43.0396 174.6 45.5792 168.63 45.5792Z" fill="#003E7D"/>
</svg>
