<svg width="247" height="44" viewBox="0 0 247 44" fill="none" xmlns="http://www.w3.org/2000/svg">
<path d="M161.84 18.2617H161.41V17.4609H160.18V18.2617H159.75C157.68 18.2617 156.469 19.4531 156.469 21.1914C156.469 22.9688 157.641 24.1211 159.75 24.1211H160.18V25.1172H161.41V24.1211H161.84C163.91 24.1211 165.121 22.9297 165.121 21.1914C165.121 19.4141 163.949 18.2617 161.84 18.2617ZM159.77 23.0664C158.422 23.0664 157.719 22.4414 157.719 21.1914C157.719 19.9805 158.461 19.3164 159.77 19.3164H160.18V23.0664H159.77ZM161.82 23.0664H161.41V19.3164H161.82C163.168 19.3164 163.871 19.9414 163.871 21.1914C163.871 22.4023 163.129 23.0664 161.82 23.0664ZM171.273 23.9844C171.02 23.9844 170.902 23.8672 170.902 23.6133V20.9766C170.902 19.7656 170.043 19.043 168.637 19.043C167.621 19.043 166.781 19.3945 166.098 20.0391L166.82 20.8008C167.289 20.3125 167.914 20.0195 168.578 20.0195C169.32 20.0195 169.809 20.332 169.809 20.8008C169.809 21.25 169.379 21.3281 168.5 21.4453C167.367 21.6211 165.98 21.9336 165.98 23.3789C165.98 24.3945 166.742 25.0977 167.895 25.0977C168.754 25.0977 169.535 24.707 169.945 24.1016C170.023 24.7852 170.355 25.0391 171.078 25.0391C171.273 25.0391 171.43 25.0195 171.488 25V23.9844H171.273ZM168.09 24.1406C167.484 24.1406 167.133 23.8477 167.133 23.3008C167.133 22.5391 167.895 22.4219 168.637 22.3047C169.203 22.207 169.555 22.1484 169.77 22.0117V22.7734C169.77 23.5156 168.988 24.1406 168.09 24.1406ZM176.781 25H178.207L175.648 21.4844L178.09 19.1406H176.605L173.969 21.7578V19.1406H172.797V25H173.969V23.0859L174.809 22.2852L176.781 25ZM183.305 19.1406L181.703 24.043L179.652 19.1406H178.363L181.117 25.3906C180.902 25.7812 180.668 25.9961 180.355 25.9961C179.848 25.9961 179.711 25.6055 179.73 25.1562L178.656 25.332C178.656 26.2305 179.164 27.0508 180.336 27.0508C181.332 27.0508 181.977 26.2695 182.348 25.2148L184.516 19.1406H183.305ZM190.531 19.1406H185.785V22.168C185.785 23.7891 185.629 23.9258 185.121 23.9258H184.809V25C184.945 25.0195 185.141 25.0391 185.355 25.0391C186.488 25.0391 186.938 24.4141 186.938 22.2852V20.1758H189.359V25H190.531V19.1406ZM195.141 21.3477H193.539V19.1406H192.367V25H195.141C196.43 25 197.25 24.2773 197.25 23.1641C197.25 22.0508 196.449 21.3477 195.141 21.3477ZM195.023 24.0234H193.539V22.3047H195.023C195.707 22.3047 196.059 22.6172 196.059 23.1641C196.059 23.7109 195.707 24.0234 195.023 24.0234ZM203.207 19.1406H197.816V20.1758H199.926V25H201.098V20.1758H203.207V19.1406ZM204.77 22.4414H209.281C209.32 22.3047 209.32 22.207 209.32 22.0703C209.32 20.2344 208.207 19.043 206.488 19.043C204.77 19.043 203.598 20.2734 203.598 22.0703C203.598 23.8086 204.652 25.0977 206.586 25.0977C207.816 25.0977 208.637 24.6289 209.125 24.043L208.324 23.3398C207.992 23.7695 207.445 24.1016 206.586 24.1016C205.551 24.1016 204.906 23.457 204.77 22.4414ZM206.488 20.0195C207.367 20.0195 207.973 20.5859 208.129 21.543H204.789C204.965 20.6055 205.57 20.0195 206.488 20.0195ZM215.062 19.1406H209.672V20.1758H211.781V25H212.953V20.1758H215.062V19.1406ZM223.285 25H224.711L222.152 21.4844L224.594 19.1406H223.109L220.473 21.7578V19.1406H219.301V25H220.473V23.0859L221.312 22.2852L223.285 25ZM225.688 18.3203H226.977V17.1484H225.688V18.3203ZM225.746 25H226.918V19.1406H225.746V25ZM232.875 19.1406V21.4844H230.023V19.1406H228.852V25H230.023V22.5391H232.875V25H234.047V19.1406H232.875ZM238.422 25.0977C240.18 25.0977 241.391 23.8672 241.391 22.0703C241.391 20.2344 240.219 19.043 238.422 19.043C236.664 19.043 235.453 20.2734 235.453 22.0703C235.453 23.9062 236.625 25.0977 238.422 25.0977ZM238.422 24.1016C237.348 24.1016 236.645 23.3008 236.645 22.0703C236.645 20.8398 237.348 20.0391 238.422 20.0391C239.496 20.0391 240.199 20.8398 240.199 22.0703C240.199 23.3008 239.496 24.1016 238.422 24.1016ZM156.957 31.3203H158.246V30.1484H156.957V31.3203ZM157.016 38H158.188V32.1406H157.016V38ZM167.914 32.1406H162.523V33.1758H164.633V38H165.805V33.1758H167.914V32.1406ZM169.477 35.4414H173.988C174.027 35.3047 174.027 35.207 174.027 35.0703C174.027 33.2344 172.914 32.043 171.195 32.043C169.477 32.043 168.305 33.2734 168.305 35.0703C168.305 36.8086 169.359 38.0977 171.293 38.0977C172.523 38.0977 173.344 37.6289 173.832 37.043L173.031 36.3398C172.699 36.7695 172.152 37.1016 171.293 37.1016C170.258 37.1016 169.613 36.457 169.477 35.4414ZM171.195 33.0195C172.074 33.0195 172.68 33.5859 172.836 34.543H169.496C169.672 33.6055 170.277 33.0195 171.195 33.0195ZM180.297 32.1406H175.551V35.168C175.551 36.7891 175.395 36.9258 174.887 36.9258H174.574V38C174.711 38.0195 174.906 38.0391 175.121 38.0391C176.254 38.0391 176.703 37.4141 176.703 35.2852V33.1758H179.125V38H180.297V32.1406ZM182.875 35.4414H187.387C187.426 35.3047 187.426 35.207 187.426 35.0703C187.426 33.2344 186.312 32.043 184.594 32.043C182.875 32.043 181.703 33.2734 181.703 35.0703C181.703 36.8086 182.758 38.0977 184.691 38.0977C185.922 38.0977 186.742 37.6289 187.23 37.043L186.43 36.3398C186.098 36.7695 185.551 37.1016 184.691 37.1016C183.656 37.1016 183.012 36.457 182.875 35.4414ZM184.594 33.0195C185.473 33.0195 186.078 33.5859 186.234 34.543H182.895C183.07 33.6055 183.676 33.0195 184.594 33.0195ZM194.145 35.3828C194.125 33.8398 193.07 32.7461 191.625 32.7461C190.668 32.7461 189.926 33.0977 189.496 33.7031C189.594 32.7461 190.082 32.2188 191.117 32.0039L192.816 31.6523C193.5 31.4961 193.891 31.1055 193.949 30.4414L193.969 30.2461L192.855 30.0508L192.816 30.2266C192.777 30.4609 192.66 30.5781 192.445 30.6172L191.059 30.9102C189.262 31.2812 188.441 32.4727 188.441 34.7383C188.441 36.7891 189.555 38.0977 191.312 38.0977C192.992 38.0977 194.164 36.9648 194.145 35.3828ZM191.312 37.1016C190.336 37.1016 189.672 36.3789 189.672 35.3438C189.672 34.3086 190.316 33.6641 191.312 33.6641C192.309 33.6641 192.934 34.3281 192.934 35.4023C192.934 36.4375 192.309 37.1016 191.312 37.1016ZM200.141 36.9844C199.887 36.9844 199.77 36.8672 199.77 36.6133V33.9766C199.77 32.7656 198.91 32.043 197.504 32.043C196.488 32.043 195.648 32.3945 194.965 33.0391L195.688 33.8008C196.156 33.3125 196.781 33.0195 197.445 33.0195C198.188 33.0195 198.676 33.332 198.676 33.8008C198.676 34.25 198.246 34.3281 197.367 34.4453C196.234 34.6211 194.848 34.9336 194.848 36.3789C194.848 37.3945 195.609 38.0977 196.762 38.0977C197.621 38.0977 198.402 37.707 198.812 37.1016C198.891 37.7852 199.223 38.0391 199.945 38.0391C200.141 38.0391 200.297 38.0195 200.355 38V36.9844H200.141ZM196.957 37.1406C196.352 37.1406 196 36.8477 196 36.3008C196 35.5391 196.762 35.4219 197.504 35.3047C198.07 35.207 198.422 35.1484 198.637 35.0117V35.7734C198.637 36.5156 197.855 37.1406 196.957 37.1406ZM204.906 32.1406V34.7383H203.461C202.602 34.7383 202.27 34.4453 202.27 33.7617V32.1406H201.098V33.7617C201.098 35.0312 201.938 35.793 203.461 35.793H204.906V38H206.078V32.1406H204.906ZM208.656 35.4414H213.168C213.207 35.3047 213.207 35.207 213.207 35.0703C213.207 33.2344 212.094 32.043 210.375 32.043C208.656 32.043 207.484 33.2734 207.484 35.0703C207.484 36.8086 208.539 38.0977 210.473 38.0977C211.703 38.0977 212.523 37.6289 213.012 37.043L212.211 36.3398C211.879 36.7695 211.332 37.1016 210.473 37.1016C209.438 37.1016 208.793 36.457 208.656 35.4414ZM210.375 33.0195C211.254 33.0195 211.859 33.5859 212.016 34.543H208.676C208.852 33.6055 209.457 33.0195 210.375 33.0195ZM218.598 32.1406V34.4844H215.746V32.1406H214.574V38H215.746V35.5391H218.598V38H219.77V32.1406H218.598ZM225.629 32.1406V34.4844H222.777V32.1406H221.605V38H222.777V35.5391H225.629V38H226.801V32.1406H225.629ZM233.129 32.1406H230.492C229.164 32.1406 228.324 32.8828 228.324 34.0156C228.324 34.7969 228.754 35.3633 229.496 35.6367L227.934 38H229.242L230.668 35.793H231.957V38H233.129V32.1406ZM230.609 34.9141C229.906 34.9141 229.496 34.582 229.496 33.9961C229.496 33.4492 229.906 33.1172 230.609 33.1172H231.957V34.9141H230.609Z" fill="white"/>
<path d="M143 8V43.5" stroke="white"/>
<path d="M4.6582 43H11.4258V9.60156H4.6582V43ZM42.8027 43H50.8887L36.9141 22.873L50.1855 9.60156H41.748L27.5098 24.4551V9.60156H20.7422V43H27.5098V32.2773L32.168 27.6191L42.8027 43ZM55.459 13.1172H62.3145V7.49219H55.459V13.1172ZM55.7227 43H62.0508V16.6328H55.7227V43ZM97.0312 9.60156H67.2363V15.7539H78.75V43H85.5176V15.7539H97.0312V9.60156ZM117.158 22.5215H109.336V15.4902H126.475V9.60156H102.568V43H117.158C124.629 43 129.199 39.1328 129.199 32.6289C129.199 26.3887 124.629 22.5215 117.158 22.5215ZM116.367 37.4629H109.248V27.8828H116.367C120.322 27.8828 122.344 29.5527 122.344 32.6289C122.344 35.793 120.322 37.4629 116.367 37.4629Z" fill="white"/>
</svg>
