<svg width="18" height="18" viewBox="0 0 18 18" fill="none" xmlns="http://www.w3.org/2000/svg">
<path d="M9 0.5625C7.35897 0.5625 5.78516 1.2144 4.62478 2.37478C3.4644 3.53516 2.8125 5.10897 2.8125 6.75C2.8125 10.0181 8.325 16.9312 8.56125 17.2294C8.61396 17.2951 8.68074 17.3481 8.75668 17.3845C8.83262 17.421 8.91577 17.4399 9 17.4399C9.08423 17.4399 9.16738 17.421 9.24332 17.3845C9.31925 17.3481 9.38604 17.2951 9.43875 17.2294C9.675 16.9312 15.1875 10.0181 15.1875 6.75C15.1875 5.10897 14.5356 3.53516 13.3752 2.37478C12.2148 1.2144 10.641 0.5625 9 0.5625ZM9 8.4375C8.55499 8.4375 8.11998 8.30554 7.74997 8.05831C7.37996 7.81107 7.09157 7.45967 6.92127 7.04854C6.75097 6.6374 6.70642 6.185 6.79323 5.74855C6.88005 5.31209 7.09434 4.91118 7.40901 4.59651C7.72368 4.28184 8.12459 4.06755 8.56105 3.98073C8.9975 3.89392 9.4499 3.93847 9.86104 4.10877C10.2722 4.27907 10.6236 4.56746 10.8708 4.93747C11.118 5.30748 11.25 5.74249 11.25 6.1875C11.25 6.78424 11.0129 7.35653 10.591 7.77849C10.169 8.20045 9.59674 8.4375 9 8.4375Z" fill="white"/>
</svg>
