<svg width="14" height="13" viewBox="0 0 14 13" fill="none" xmlns="http://www.w3.org/2000/svg">
<path d="M5.38439 7.61737C4.1435 6.37648 3.86332 5.13559 3.80011 4.63843C3.78244 4.50096 3.82975 4.3631 3.9281 4.26544L4.93228 3.26171C5.08 3.11408 5.10622 2.88401 4.99549 2.70694L3.39664 0.224262C3.27415 0.0281871 3.02263 -0.0425782 2.81587 0.0608571L0.249138 1.26969C0.0819362 1.35202 -0.0164098 1.52967 0.00257417 1.71508C0.137064 2.99273 0.694074 6.1335 3.78061 9.22026C6.86714 12.307 10.0075 12.8638 11.2858 12.9983C11.4712 13.0173 11.6488 12.9189 11.7312 12.7517L12.94 10.185C13.0431 9.97868 12.9728 9.72784 12.7775 9.60512L10.2948 8.00672C10.1179 7.89588 9.88779 7.92191 9.74006 8.06948L8.73632 9.07367C8.63866 9.17201 8.5008 9.21932 8.36333 9.20165C7.86617 9.13844 6.62528 8.85826 5.38439 7.61737Z" fill="white"/>
<path d="M10.3116 6.94932C10.064 6.94932 9.86327 6.74861 9.86327 6.50102C9.86117 4.64498 8.35707 3.14088 6.50103 3.13878C6.25344 3.13878 6.05273 2.93807 6.05273 2.69049C6.05273 2.4429 6.25344 2.24219 6.50103 2.24219C8.85204 2.24478 10.7573 4.15001 10.7599 6.50102C10.7599 6.74861 10.5592 6.94932 10.3116 6.94932Z" fill="white"/>
<path d="M12.5533 6.94874C12.3057 6.94874 12.105 6.74803 12.105 6.50044C12.1015 3.40703 9.5947 0.900177 6.50128 0.896718C6.25369 0.896718 6.05298 0.696008 6.05298 0.44842C6.05298 0.200832 6.25369 0.00012207 6.50128 0.00012207C10.0897 0.00407513 12.9976 2.91205 13.0016 6.50044C13.0016 6.61934 12.9544 6.73337 12.8703 6.81744C12.7862 6.90151 12.6722 6.94874 12.5533 6.94874Z" fill="white"/>
</svg>
