<svg width="13" height="13" viewBox="0 0 13 13" fill="none" xmlns="http://www.w3.org/2000/svg">
<path d="M5.38415 7.61737C4.14326 6.37648 3.86307 5.13559 3.79986 4.63843C3.7822 4.50096 3.82951 4.3631 3.92785 4.26544L4.93204 3.26171C5.07976 3.11408 5.10597 2.88401 4.99525 2.70694L3.39639 0.224262C3.2739 0.0281871 3.02239 -0.0425782 2.81562 0.0608571L0.248894 1.26969C0.081692 1.35202 -0.0166539 1.52967 0.00233003 1.71508C0.136819 2.99273 0.69383 6.1335 3.78036 9.22026C6.86689 12.307 10.0072 12.8638 11.2855 12.9983C11.4709 13.0173 11.6486 12.9189 11.7309 12.7517L12.9398 10.185C13.0428 9.97868 12.9725 9.72784 12.7773 9.60512L10.2946 8.00672C10.1176 7.89588 9.88755 7.92191 9.73981 8.06948L8.73607 9.07367C8.63841 9.17201 8.50056 9.21932 8.36309 9.20165C7.86593 9.13844 6.62504 8.85826 5.38415 7.61737Z" fill="#003E7D"/>
<path d="M10.3116 6.94932C10.064 6.94932 9.86327 6.74861 9.86327 6.50102C9.86117 4.64498 8.35707 3.14088 6.50103 3.13878C6.25344 3.13878 6.05273 2.93807 6.05273 2.69049C6.05273 2.4429 6.25344 2.24219 6.50103 2.24219C8.85204 2.24478 10.7573 4.15001 10.7599 6.50102C10.7599 6.74861 10.5592 6.94932 10.3116 6.94932Z" fill="#003E7D"/>
<path d="M12.5531 6.94862C12.3055 6.94862 12.1048 6.74791 12.1048 6.50032C12.1013 3.4069 9.59445 0.900055 6.50103 0.896596C6.25344 0.896596 6.05273 0.695886 6.05273 0.448298C6.05273 0.20071 6.25344 0 6.50103 0C10.0894 0.00395306 12.9974 2.91193 13.0014 6.50032C13.0014 6.61922 12.9541 6.73324 12.8701 6.81732C12.786 6.90139 12.672 6.94862 12.5531 6.94862Z" fill="#003E7D"/>
</svg>
