<svg width="56" height="56" viewBox="0 0 56 56" fill="none" xmlns="http://www.w3.org/2000/svg">
<g clip-path="url(#clip0_3_1623)">
<path d="M36.0614 29.9881L29.6494 28.3842C29.7118 28.2629 29.7446 28.1285 29.745 27.9921C29.7454 27.8557 29.7135 27.7211 29.6519 27.5994C29.5902 27.4778 29.5006 27.3724 29.3903 27.2921C29.2801 27.2118 29.1524 27.1587 29.0176 27.1373L24.5 26.3839V25.0662C25.5705 24.4475 26.498 23.6095 27.2218 22.6072C27.9457 21.6048 28.4494 20.4608 28.7 19.2501H29.75C30.4462 19.2501 31.1139 18.9735 31.6062 18.4812C32.0984 17.9889 32.375 17.3213 32.375 16.6251C32.375 15.9289 32.0984 15.2612 31.6062 14.7689C31.1139 14.2766 30.4462 14.0001 29.75 14.0001H28.9476L29.8043 12.0129C30.537 10.3142 30.5744 8.39584 29.9086 6.66977C29.2428 4.94369 27.9267 3.54746 26.243 2.78082L23.8 1.66869C22.3546 1.02781 20.7655 0.78019 19.1936 0.950899C17.6218 1.12161 16.1229 1.70459 14.8488 2.64082L13.4689 3.67507C12.086 4.03497 10.8982 4.92066 10.1588 6.14344C9.68468 6.92892 9.41756 7.82179 9.38237 8.73856C9.34717 9.65533 9.54505 10.5661 9.9575 11.3856L11.2656 14.0001H10.5C9.80381 14.0001 9.13613 14.2766 8.64385 14.7689C8.15156 15.2612 7.875 15.9289 7.875 16.6251C7.875 17.3213 8.15156 17.9889 8.64385 18.4812C9.13613 18.9735 9.80381 19.2501 10.5 19.2501H11.55C11.8006 20.4608 12.3043 21.6048 13.0282 22.6072C13.752 23.6095 14.6796 24.4475 15.75 25.0662V26.3839L11.2298 27.1373C11.095 27.1588 10.9673 27.212 10.857 27.2924C10.7468 27.3729 10.6572 27.4783 10.5955 27.6C10.5339 27.7218 10.502 27.8564 10.5024 27.9928C10.5028 28.1293 10.5356 28.2637 10.598 28.3851L4.18863 29.9881C3.24156 30.2238 2.40069 30.7699 1.80012 31.5392C1.19955 32.3085 0.873862 33.2567 0.875003 34.2327V50.7501C0.876392 51.91 1.33777 53.022 2.15795 53.8421C2.97812 54.6623 4.09011 55.1237 5.25 55.1251H38.5C38.7321 55.1251 38.9546 55.0329 39.1187 54.8688C39.2828 54.7047 39.375 54.4821 39.375 54.2501V34.2327C39.3761 33.2567 39.0505 32.3085 38.4499 31.5392C37.8493 30.7699 37.0085 30.2238 36.0614 29.9881ZM24.3705 28.1366L27.5065 28.6616L24.3565 34.3368L21.7315 31.1868C22.3838 30.9274 22.9642 30.5148 23.4235 29.9839C23.8828 29.4531 24.2076 28.8194 24.3705 28.1366ZM30.625 16.6251C30.625 16.8571 30.5328 17.0797 30.3687 17.2438C30.2046 17.4079 29.9821 17.5001 29.75 17.5001H28.875V15.7501H29.75C29.9821 15.7501 30.2046 15.8423 30.3687 16.0063C30.5328 16.1704 30.625 16.393 30.625 16.6251ZM11.6611 7.04732C11.9913 6.50044 12.4567 6.04781 13.0125 5.73302C13.5684 5.41824 14.196 5.25191 14.8348 5.25007C15.5089 5.24928 16.1728 5.41539 16.7672 5.73357C17.3616 6.05175 17.8679 6.5121 18.2411 7.07357L18.5159 7.48569L19.9719 6.51444L19.6971 6.10319C18.9197 4.93752 17.7483 4.09103 16.3975 3.71882C17.3903 3.10684 18.517 2.74549 19.6806 2.66592C20.8441 2.58635 22.0095 2.79094 23.0764 3.26207L25.5185 4.37507C26.7852 4.95212 27.7752 6.00279 28.276 7.30155C28.7767 8.60031 28.7483 10.0436 28.1969 11.3217L27.9344 11.9211L27.0375 10.1089C26.9803 9.99354 26.8984 9.89218 26.7975 9.81211C26.6966 9.73203 26.5793 9.67522 26.4539 9.64571C26.3286 9.61621 26.1982 9.61474 26.0722 9.64143C25.9462 9.66811 25.8277 9.72228 25.725 9.80007L24.325 10.8501C23.1133 11.7588 21.6396 12.2501 20.125 12.2501C18.6104 12.2501 17.1367 11.7588 15.925 10.8501L14.525 9.80007C14.4224 9.72228 14.3038 9.66811 14.1778 9.64143C14.0518 9.61474 13.9215 9.61621 13.7961 9.64571C13.6707 9.67522 13.5534 9.73203 13.4525 9.81211C13.3516 9.89218 13.2697 9.99354 13.2125 10.1089L12.25 12.0497L11.5273 10.6051C11.2469 10.0491 11.1121 9.43114 11.1355 8.80893C11.1589 8.18672 11.3397 7.58061 11.6611 7.04732ZM10.5 17.5001C10.2679 17.5001 10.0454 17.4079 9.88128 17.2438C9.71719 17.0797 9.625 16.8571 9.625 16.6251C9.625 16.393 9.71719 16.1704 9.88128 16.0063C10.0454 15.8423 10.2679 15.7501 10.5 15.7501H11.375V17.5001H10.5ZM13.125 17.5001V14.2066L14.3133 11.8292L14.875 12.2501C16.3896 13.386 18.2318 14.0001 20.125 14.0001C22.0182 14.0001 23.8604 13.386 25.375 12.2501L25.9368 11.8292L27.125 14.2066V17.5001C27.125 19.3566 26.3875 21.1371 25.0748 22.4498C23.762 23.7626 21.9815 24.5001 20.125 24.5001C18.2685 24.5001 16.488 23.7626 15.1753 22.4498C13.8625 21.1371 13.125 19.3566 13.125 17.5001ZM20.125 26.2501C21.0154 26.2501 21.9007 26.1141 22.75 25.8467V27.1251C22.75 27.8213 22.4734 28.4889 21.9812 28.9812C21.4889 29.4735 20.8212 29.7501 20.125 29.7501C19.4288 29.7501 18.7611 29.4735 18.2688 28.9812C17.7766 28.4889 17.5 27.8213 17.5 27.1251V25.8467C18.3493 26.1141 19.2346 26.2501 20.125 26.2501ZM15.8795 28.1366C16.0427 28.8192 16.3678 29.4525 16.8273 29.9831C17.2867 30.5137 17.8671 30.9259 18.5194 31.1851L15.8944 34.3351L12.74 28.6598L15.8795 28.1366ZM21.875 40.2501H18.375V38.5001C18.375 38.0359 18.5594 37.5908 18.8876 37.2626C19.2158 36.9344 19.6609 36.7501 20.125 36.7501C20.5891 36.7501 21.0343 36.9344 21.3624 37.2626C21.6906 37.5908 21.875 38.0359 21.875 38.5001V40.2501ZM17.5 42.0001H22.75C22.9821 42.0001 23.2046 42.0923 23.3687 42.2563C23.5328 42.4204 23.625 42.643 23.625 42.8751C23.625 43.1071 23.5328 43.3297 23.3687 43.4938C23.2046 43.6579 22.9821 43.7501 22.75 43.7501H17.5C17.2679 43.7501 17.0454 43.6579 16.8813 43.4938C16.7172 43.3297 16.625 43.1071 16.625 42.8751C16.625 42.643 16.7172 42.4204 16.8813 42.2563C17.0454 42.0923 17.2679 42.0001 17.5 42.0001ZM21 45.5001V47.2501H19.25V45.5001H21ZM21.875 49.0001C22.1071 49.0001 22.3296 49.0923 22.4937 49.2563C22.6578 49.4204 22.75 49.643 22.75 49.8751V53.3751H17.5V49.0001H21.875ZM37.625 53.3751H31.5V41.1251H29.75V53.3751H24.5V49.8751C24.4978 49.3341 24.3284 48.807 24.0152 48.366C23.7019 47.9249 23.26 47.5914 22.75 47.4111V45.5001C23.3685 45.5012 23.9674 45.2835 24.4407 44.8854C24.914 44.4873 25.2312 43.9345 25.336 43.325C25.4408 42.7154 25.3265 42.0885 25.0133 41.5552C24.7002 41.0218 24.2083 40.6165 23.625 40.4111V38.5001C23.625 37.5718 23.2563 36.6816 22.5999 36.0252C21.9435 35.3688 21.0533 35.0001 20.125 35.0001C19.1967 35.0001 18.3065 35.3688 17.6501 36.0252C16.9938 36.6816 16.625 37.5718 16.625 38.5001V40.4111C16.0417 40.6165 15.5499 41.0218 15.2367 41.5552C14.9235 42.0885 14.8092 42.7154 14.914 43.325C15.0188 43.9345 15.336 44.4873 15.8093 44.8854C16.2826 45.2835 16.8815 45.5012 17.5 45.5001V47.2501H10.5V41.1251H8.75V48.1251C8.75 48.3571 8.84219 48.5797 9.00628 48.7438C9.17038 48.9079 9.39294 49.0001 9.625 49.0001H15.75V53.3751H5.25C4.55381 53.3751 3.88613 53.0985 3.39385 52.6062C2.90156 52.1139 2.625 51.4463 2.625 50.7501V34.2327C2.62487 33.6472 2.82046 33.0785 3.18067 32.617C3.54089 32.1555 4.04505 31.8276 4.613 31.6856L11.4678 29.9706L14.9853 36.2994C15.0541 36.4238 15.1523 36.5295 15.2712 36.6074C15.3901 36.6853 15.5262 36.7331 15.6678 36.7466H15.75C15.8782 36.7466 16.0048 36.7185 16.1209 36.6642C16.2371 36.61 16.3398 36.5308 16.422 36.4324L20.125 31.9918L23.828 36.4359C23.9102 36.5343 24.0129 36.6135 24.1291 36.6677C24.2452 36.722 24.3718 36.7501 24.5 36.7501C24.5274 36.7518 24.5549 36.7518 24.5823 36.7501C24.7237 36.7367 24.8598 36.6891 24.9787 36.6113C25.0976 36.5336 25.1958 36.428 25.2648 36.3038L28.7805 29.9749L35.637 31.6899C36.2042 31.8318 36.7079 32.159 37.068 32.6197C37.4281 33.0803 37.6242 33.648 37.625 34.2327V53.3751Z" fill="white"/>
<path d="M54.25 0.875H35C34.7679 0.875 34.5454 0.967187 34.3813 1.13128C34.2172 1.29538 34.125 1.51794 34.125 1.75V17.5C34.125 17.7321 34.2172 17.9546 34.3813 18.1187C34.5454 18.2828 34.7679 18.375 35 18.375H39.375V22.75C39.375 22.9174 39.423 23.0812 39.5133 23.2221C39.6036 23.363 39.7325 23.475 39.8845 23.5449C40.0366 23.6148 40.2055 23.6397 40.3712 23.6165C40.537 23.5933 40.6926 23.5231 40.8196 23.4141L46.6987 18.375H54.25C54.4821 18.375 54.7046 18.2828 54.8687 18.1187C55.0328 17.9546 55.125 17.7321 55.125 17.5V1.75C55.125 1.51794 55.0328 1.29538 54.8687 1.13128C54.7046 0.967187 54.4821 0.875 54.25 0.875ZM53.375 16.625H46.375C46.166 16.625 45.964 16.6998 45.8054 16.8359L41.125 20.8477V17.5C41.125 17.2679 41.0328 17.0454 40.8687 16.8813C40.7046 16.7172 40.4821 16.625 40.25 16.625H35.875V2.625H53.375V16.625Z" fill="white"/>
<path d="M41.125 5.25H45.5V7H41.125V5.25Z" fill="white"/>
<path d="M37.625 8.75H51.625V10.5H37.625V8.75Z" fill="white"/>
<path d="M37.625 12.25H51.625V14H37.625V12.25Z" fill="white"/>
<path d="M47.25 5.25H51.625V7H47.25V5.25Z" fill="white"/>
</g>
<defs>
<clipPath id="clip0_3_1623">
<rect width="56" height="56" fill="white"/>
</clipPath>
</defs>
</svg>
