<svg width="22" height="21" viewBox="0 0 22 21" fill="none" xmlns="http://www.w3.org/2000/svg">
<g clip-path="url(#clip0_51_150)">
<path d="M15.0054 7.48363L9.75626 11.7742L9.50927 11.9765C9.45501 12.0195 9.41959 12.0819 9.41047 12.1505L9.3552 12.6069L9.20347 13.8889C9.20488 13.9045 9.20003 13.92 9.18999 13.932C9.17996 13.944 9.16556 13.9516 9.14996 13.953C9.13436 13.9544 9.11885 13.9495 9.10683 13.9395C9.09481 13.9294 9.08726 13.915 9.08586 13.8994L8.65892 12.6175L8.21787 11.3061C8.19905 11.2473 8.20146 11.1838 8.22467 11.1266C8.24789 11.0694 8.29043 11.0222 8.34489 10.9932L13.8069 7.86234L14.8348 7.27427C14.9842 7.18724 15.1371 7.37542 15.0054 7.48363Z" fill="white"/>
<path d="M10.85 0.150391C8.80297 0.150391 6.8019 0.757407 5.09985 1.89468C3.3978 3.03195 2.07122 4.6484 1.28785 6.53962C0.504485 8.43083 0.29952 10.5119 0.698877 12.5196C1.09823 14.5273 2.08398 16.3715 3.53145 17.8189C4.97892 19.2664 6.82312 20.2522 8.83082 20.6515C10.8385 21.0509 12.9196 20.8459 14.8108 20.0625C16.702 19.2792 18.3184 17.9526 19.4557 16.2505C20.593 14.5485 21.2 12.5474 21.2 10.5004C21.2 7.7554 20.1096 5.12284 18.1686 3.18184C16.2276 1.24083 13.595 0.15039 10.85 0.150391V0.150391ZM17.3058 6.14163L15.2852 15.0697C15.1899 15.4884 14.6583 15.6777 14.2855 15.4225L11.2346 13.3525L9.68092 14.8215C9.61757 14.881 9.54067 14.9241 9.45689 14.947C9.37312 14.97 9.28499 14.9723 9.20017 14.9535C9.11535 14.9347 9.03638 14.8955 8.97013 14.8393C8.90388 14.7831 8.85235 14.7116 8.81999 14.631L8.25898 12.9844L7.69796 11.3378L4.69058 10.5145C4.60649 10.4961 4.53083 10.4505 4.47535 10.3847C4.41986 10.3189 4.38768 10.2366 4.38379 10.1507C4.3799 10.0647 4.40452 9.97983 4.45384 9.90929C4.50315 9.83875 4.57439 9.78648 4.65647 9.7606L16.2743 5.57473L16.4884 5.49828C16.9389 5.34068 17.4046 5.70528 17.3058 6.14163Z" fill="white"/>
</g>
<defs>
<clipPath id="clip0_51_150">
<rect width="20.7" height="20.7" fill="white" transform="translate(0.5 0.150391)"/>
</clipPath>
</defs>
</svg>
