<svg width="23" height="23" viewBox="0 0 23 23" fill="none" xmlns="http://www.w3.org/2000/svg">
<g clip-path="url(#clip0_78_81)">
<path d="M16.3687 8.08101L10.7497 12.674L10.4853 12.8905C10.4272 12.9366 10.3893 13.0034 10.3795 13.0768L10.3203 13.5653L10.1579 14.9377C10.1594 14.9544 10.1542 14.971 10.1435 14.9839C10.1327 14.9967 10.1173 15.0048 10.1006 15.0063C10.0839 15.0078 10.0673 15.0026 10.0545 14.9919C10.0416 14.9811 10.0335 14.9657 10.032 14.949L9.57499 13.5767L9.10285 12.1729C9.08271 12.1099 9.08528 12.042 9.11013 11.9808C9.13498 11.9196 9.18053 11.869 9.23882 11.838L15.0858 8.48642L16.1862 7.8569C16.3461 7.76373 16.5097 7.96518 16.3687 8.08101Z" fill="#E2CF8A"/>
<path d="M11.9205 0.230957C9.72917 0.230957 7.58707 0.880757 5.76506 2.09818C3.94305 3.31561 2.52296 5.04599 1.68438 7.0705C0.845804 9.09501 0.626394 11.3227 1.0539 13.4719C1.4814 15.6211 2.53662 17.5953 4.08611 19.1448C5.6356 20.6943 7.60978 21.7495 9.75898 22.177C11.9082 22.6045 14.1359 22.3851 16.1604 21.5465C18.1849 20.7079 19.9153 19.2879 21.1327 17.4659C22.3502 15.6438 23 13.5017 23 11.3104C23 8.37197 21.8327 5.55386 19.7549 3.47606C17.677 1.39826 14.8589 0.230957 11.9205 0.230957V0.230957ZM18.8313 6.64446L16.6683 16.2018C16.5663 16.65 15.9972 16.8527 15.5981 16.5795L12.3322 14.3636L10.669 15.9361C10.6012 15.9997 10.5189 16.0459 10.4292 16.0705C10.3395 16.0951 10.2452 16.0975 10.1544 16.0774C10.0636 16.0573 9.97903 16.0153 9.90811 15.9552C9.8372 15.895 9.78203 15.8185 9.74739 15.7321L9.14684 13.9695L8.54628 12.2069L5.32694 11.3255C5.23692 11.3059 5.15592 11.257 5.09653 11.1866C5.03714 11.1162 5.00269 11.0281 4.99852 10.9361C4.99436 10.844 5.02072 10.7532 5.07351 10.6777C5.1263 10.6022 5.20255 10.5462 5.29042 10.5185L17.7271 6.03761L17.9563 5.95577C18.4385 5.78706 18.9371 6.17736 18.8313 6.64446Z" fill="#E2CF8A"/>
</g>
<defs>
<clipPath id="clip0_78_81">
<rect width="22.1589" height="22.1589" fill="white" transform="translate(0.841064 0.230957)"/>
</clipPath>
</defs>
</svg>
