<svg width="22" height="22" viewBox="0 0 22 22" fill="none" xmlns="http://www.w3.org/2000/svg">
<g clip-path="url(#clip0_51_148)">
<path d="M10.925 -1.24653e-07C4.89222 -5.58197e-08 5.58197e-08 4.89222 1.24653e-07 10.925C1.93486e-07 16.9578 4.89222 21.85 10.925 21.85C16.9578 21.85 21.85 16.9578 21.85 10.925C21.85 4.89222 16.9578 -1.93486e-07 10.925 -1.24653e-07ZM16.4059 8.35903L16.4059 9.8383C15.7083 9.83856 15.0306 9.70187 14.3914 9.4322C13.9804 9.25868 13.5974 9.0351 13.2472 8.76492L13.2577 13.3181C13.2533 14.3434 12.8477 15.3067 12.1135 16.0324C11.5161 16.623 10.759 16.9986 9.93842 17.1202C9.74561 17.1487 9.54939 17.1633 9.35095 17.1633C8.47255 17.1633 7.63862 16.8788 6.95645 16.3538C6.82808 16.2549 6.7053 16.1478 6.58842 16.0324C5.79277 15.246 5.38248 14.1802 5.45158 13.059C5.50428 12.2055 5.84598 11.3915 6.41562 10.7536C7.16928 9.90936 8.22362 9.44078 9.35095 9.44078C9.54939 9.44078 9.74561 9.45567 9.93842 9.48422L9.93842 10.0312L9.93842 11.5526C9.7556 11.4923 9.56036 11.4592 9.35705 11.4592C8.32711 11.4592 7.49387 12.2995 7.50927 13.3302C7.51905 13.9896 7.87927 14.5661 8.41059 14.8839C8.66028 15.0332 8.94753 15.1257 9.25407 15.1426C9.49425 15.1557 9.72487 15.1223 9.93842 15.0518C10.6743 14.8087 11.2051 14.1175 11.2051 13.3023L11.2076 10.2533L11.2076 4.68665L13.2447 4.68665C13.2467 4.88851 13.2672 5.08546 13.3052 5.27631C13.459 6.04878 13.8944 6.71896 14.5004 7.17585C15.0288 7.5744 15.6868 7.81065 16.4 7.81065C16.4004 7.81065 16.4063 7.81065 16.4058 7.81018L16.4058 8.35903L16.4059 8.35903Z" fill="white"/>
</g>
<defs>
<clipPath id="clip0_51_148">
<rect width="21.85" height="21.85" fill="white"/>
</clipPath>
</defs>
</svg>
