<svg width="25" height="24" viewBox="0 0 25 24" fill="none" xmlns="http://www.w3.org/2000/svg">
<g clip-path="url(#clip0_78_79)">
<path d="M12.589 -1.33439e-07C6.13107 -5.97539e-08 0.894043 5.23703 0.894043 11.695C0.894043 18.153 6.13107 23.39 12.589 23.39C19.047 23.39 24.284 18.153 24.284 11.695C24.284 5.23703 19.047 -2.07123e-07 12.589 -1.33439e-07ZM18.4562 8.94818L18.4562 10.5317C17.7095 10.532 16.984 10.3857 16.2997 10.097C15.8598 9.91124 15.4498 9.6719 15.0749 9.38268L15.0862 14.2568C15.0814 15.3543 14.6472 16.3856 13.8613 17.1623C13.2218 17.7946 12.4113 18.1966 11.5329 18.3268C11.3265 18.3574 11.1165 18.373 10.904 18.373C9.96374 18.373 9.07104 18.0684 8.34079 17.5064C8.20337 17.4006 8.07194 17.2859 7.94681 17.1623C7.09509 16.3205 6.65589 15.1796 6.72985 13.9794C6.78627 13.0657 7.15206 12.1944 7.76184 11.5115C8.56861 10.6078 9.69727 10.1062 10.904 10.1062C11.1165 10.1062 11.3265 10.1221 11.5329 10.1527L11.5329 10.7382L11.5329 12.3669C11.3372 12.3023 11.1282 12.2668 10.9106 12.2668C9.80805 12.2668 8.91608 13.1663 8.93257 14.2697C8.94304 14.9756 9.32865 15.5927 9.89741 15.9329C10.1647 16.0928 10.4722 16.1918 10.8003 16.2098C11.0575 16.2239 11.3043 16.1881 11.5329 16.1126C12.3207 15.8524 12.8889 15.1125 12.8889 14.2399L12.8915 10.9759L12.8915 5.01697L15.0723 5.01697C15.0744 5.23306 15.0963 5.44389 15.137 5.64818C15.3016 6.4751 15.7678 7.19252 16.4165 7.6816C16.9821 8.10824 17.6865 8.36115 18.4499 8.36115C18.4504 8.36115 18.4567 8.36115 18.4561 8.36065L18.4561 8.94818L18.4562 8.94818Z" fill="#E2CF8A"/>
</g>
<defs>
<clipPath id="clip0_78_79">
<rect width="23.39" height="23.39" fill="white" transform="translate(0.894043)"/>
</clipPath>
</defs>
</svg>
