<svg width="102" height="23" viewBox="0 0 102 23" fill="none" xmlns="http://www.w3.org/2000/svg">
<path d="M20.3388 -2.32063e-07L18.5203 20.6017L10.1694 23L1.81853 20.6017L0 0L20.3388 -2.32063e-07Z" fill="url(#paint0_linear_51_116)"/>
<path d="M30.6998 12.7357L30.6998 14.8703L24.6699 14.8703L24.6699 14.5105L27.3499 10.0016L24.9092 10.0016L24.9092 7.86719L30.6759 7.86719L30.6759 8.25087L28.0438 12.7118L30.6998 12.7357Z" fill="white"/>
<path d="M39.5057 7.86683L39.5057 14.8699L37.6393 14.8699L37.4239 14.3663C36.8496 14.822 36.1318 15.0858 35.3182 15.0858C33.1886 15.0858 31.6572 13.5268 31.6572 11.3444C31.6572 9.18583 33.1886 7.62695 35.3182 7.62695C36.1318 7.62695 36.8736 7.89079 37.4478 8.37047L37.6871 7.81883L39.5057 7.81883L39.5057 7.86683ZM37.2325 11.3684C37.2325 10.457 36.5625 9.78547 35.6771 9.78547C34.7679 9.78547 34.1219 10.457 34.1219 11.3684C34.1219 12.2797 34.7918 12.9752 35.6771 12.9752C36.5625 12.9752 37.2325 12.2797 37.2325 11.3684Z" fill="white"/>
<path d="M48.2863 10.648L48.2863 14.869L45.8935 14.869L45.8935 10.9358C45.8935 10.1204 45.6063 9.71263 44.9843 9.71263C44.2664 9.71263 43.8118 10.2402 43.8118 11.1276L43.8118 14.869L41.4189 14.869L41.4189 5.34766L43.8118 5.34766L43.8118 8.32159C44.3143 7.91387 44.9843 7.65006 45.6781 7.65006C47.2574 7.67404 48.2863 8.84919 48.2863 10.648Z" fill="white"/>
<path d="M57.5232 7.86683L57.5232 14.8699L55.6567 14.8699L55.4414 14.3663C54.8671 14.822 54.1493 15.0858 53.3357 15.0858C51.2061 15.0858 49.6748 13.5268 49.6748 11.3444C49.6748 9.18583 51.2061 7.62695 53.3357 7.62695C54.1493 7.62695 54.8911 7.89079 55.4654 8.37047L55.7047 7.81883L57.5232 7.81883L57.5232 7.86683ZM55.226 11.3684C55.226 10.457 54.5561 9.78547 53.6708 9.78547C52.7615 9.78547 52.1154 10.457 52.1154 11.3684C52.1154 12.2797 52.7854 12.9752 53.6708 12.9752C54.5561 12.9752 55.226 12.2797 55.226 11.3684Z" fill="white"/>
<path d="M63.9355 7.84232L63.9355 10.0488L63.0023 10.0488C62.1409 10.0488 61.8059 10.4326 61.8059 11.3199L61.8059 14.8694L59.4131 14.8694L59.4131 7.86636L61.0163 7.86636L61.3991 8.6338C61.9016 8.0582 62.4998 7.81836 63.3134 7.81836L63.9355 7.81836L63.9355 7.84232Z" fill="white"/>
<path d="M64.6777 11.3678C64.6777 9.20932 66.3048 7.65039 68.578 7.65039C70.8511 7.65039 72.4783 9.20932 72.4783 11.3678C72.4783 13.5263 70.8272 15.0852 68.578 15.0852C66.3288 15.1092 64.6777 13.5263 64.6777 11.3678ZM68.6019 12.9267C69.4873 12.9267 70.1093 12.2792 70.1093 11.3678C70.1093 10.4564 69.4873 9.80888 68.6019 9.80888C67.7166 9.80888 67.0944 10.4564 67.0944 11.3678C67.0944 12.3031 67.7166 12.9267 68.6019 12.9267Z" fill="white"/>
<path d="M80.7327 7.86719L77.9331 14.8703L75.7557 14.8703L72.9082 7.86719L75.5403 7.86719L76.8564 12.0163L78.1484 7.86719L80.7327 7.86719Z" fill="white"/>
<path d="M81.8818 7.86719L84.2746 9.61795L84.2746 14.8703L81.8818 14.8703L81.8818 7.86719Z" fill="#FFEA23"/>
<path d="M81.8818 4.36523L84.2503 4.36523L84.2746 7.86683L81.8818 6.11602L81.8818 4.36523Z" fill="#005BBB"/>
<path d="M89.61 15.1092C87.3605 15.1092 85.7578 13.5263 85.7578 11.3678C85.7578 9.20932 87.3605 7.65039 89.61 7.65039C91.5721 7.65039 93.0316 8.89752 93.2946 10.7442L90.9496 10.7442C90.7586 10.1686 90.2082 9.80888 89.5857 9.80888C88.7487 9.80888 88.1506 10.4564 88.1506 11.3678C88.1506 12.2792 88.7487 12.9267 89.5857 12.9267C90.2325 12.9267 90.7586 12.519 90.9496 11.8954L93.3189 11.8954C93.0558 13.8141 91.5721 15.1092 89.61 15.1092Z" fill="white"/>
<path d="M101.623 10.648L101.623 14.869L99.2297 14.869L99.2297 10.9358C99.2297 10.1204 98.9432 9.71263 98.3207 9.71263C97.6027 9.71263 97.1486 10.2402 97.1486 11.1276L97.1486 14.869L94.7559 14.869L94.7559 5.34766L97.1486 5.34766L97.1486 8.32159C97.6505 7.91387 98.3207 7.65006 99.0144 7.65006C100.594 7.67404 101.623 8.84919 101.623 10.648Z" fill="white"/>
<path d="M3.03866 9.8084C3.03866 9.8084 2.63188 10.0723 2.60795 10.3361C2.58403 10.5759 2.63188 10.7917 3.1583 10.6478C3.68471 10.504 4.11542 10.0482 4.85719 10.36C5.59896 10.6718 5.52717 10.6718 5.64681 10.456C5.74253 10.2402 5.74253 9.61656 5.52717 9.76048C5.31182 9.90432 4.28291 9.92836 3.90007 9.95232C3.51722 10.0003 3.42151 9.8564 3.42151 9.8564L2.7276 8.94504C2.7276 8.94504 2.82331 8.48931 3.18223 8.20155C3.54115 7.91371 3.90007 7.96171 3.90007 7.96171C3.90007 7.96171 3.7565 7.76987 3.54115 7.79383C3.32579 7.81779 3.18223 7.79383 3.06259 7.74583C3.06259 7.74583 3.99578 7.14629 4.28291 6.95441L4.23506 7.00238C4.76148 6.57068 5.19218 6.5467 5.19218 6.5467C5.19218 6.5467 5.47932 6.5467 5.67074 6.78653C5.83824 7.02636 5.81431 7.17027 6.19716 7.21823C6.58001 7.2662 7.29785 6.5467 7.29785 6.5467C7.29785 6.5467 6.3168 6.35483 5.74253 6.37882C5.16825 6.4028 5.04862 6.21094 5.04862 6.21094L4.97683 6.2589C4.0197 7.07433 2.5601 7.53001 2.5601 7.53001C2.27296 7.72188 2.10547 8.03367 2.10547 8.03367C2.10547 8.03367 2.1294 8.58532 2.5601 9.11292C2.91902 9.66456 3.03866 9.8084 3.03866 9.8084Z" fill="#003E7D"/>
<path d="M15.7207 5.3971C15.3139 4.79752 14.8353 4.29387 14.3089 3.91014L16.5103 4.07802C16.5103 4.07802 15.9599 3.16665 14.2371 2.87885C13.95 2.83088 13.7107 2.8069 13.4714 2.8069L15.266 2.32723C15.266 2.32723 14.4764 1.99147 13.304 2.01546C12.1315 2.03944 11.5333 2.56707 11.5333 2.56707L12.4904 1.67969C12.4904 1.67969 9.30794 1.91952 7.60907 3.35852C6.65194 3.8142 5.95803 4.5337 5.71875 5.37312C5.71875 5.37312 5.81446 5.08532 6.89123 4.62964C7.94406 4.19794 8.73371 4.43777 8.73371 4.43777C8.73371 4.43777 8.2312 4.5337 7.80049 5.20524C7.36978 5.87677 7.8962 6.42838 7.8962 6.42838C7.8962 6.42838 8.20724 5.75685 8.75759 5.22921C9.35578 4.65362 10.313 4.62964 10.313 4.62964C10.313 4.62964 10.7675 5.27718 10.959 6.8361C13.7825 7.36373 16.271 9.16252 17.7067 11.8966C17.7546 9.83404 17.0846 7.45966 15.7207 5.3971Z" fill="#003E7D"/>
<path d="M14.2376 8.87283C12.7062 7.93751 11.6534 7.52976 10.9834 7.33789C11.0073 7.72163 11.0312 8.15331 11.0073 8.63299C14.2854 9.83212 16.0561 12.6622 16.9893 14.8447C17.3004 14.2211 17.5157 13.5256 17.6114 12.7821C16.8218 11.3671 15.6254 9.71224 14.2376 8.87283Z" fill="#003E7D"/>
<path d="M10.9593 10.2892C10.8397 10.1933 10.72 10.0974 10.6004 10.0254C10.5764 10.2412 10.4807 10.8168 10.2415 11.4404C9.85859 12.4477 9.35609 12.9513 8.66222 13.455C7.84863 14.0306 7.17865 14.4622 6.98723 15.4696C6.74795 16.6927 7.20258 17.8679 7.75292 18.6114C8.66222 19.8586 8.99717 20.554 9.04501 20.9378C9.21257 20.674 9.66716 20.0504 11.0789 18.5154C11.2942 18.2996 11.4857 18.0358 11.6532 17.7719C13.7589 14.7501 12.8256 11.8242 10.9593 10.2892Z" fill="#003E7D"/>
<path d="M7.1068 12.352C8.03999 12.1362 8.78177 11.4406 8.97321 10.5053C8.97321 10.4573 8.99708 10.4094 8.99708 10.3614C9.21248 9.04231 8.01603 8.29883 8.01603 8.29883C8.01603 8.29883 8.63817 10.6252 7.39393 10.865C6.98715 10.937 6.36502 11.057 5.98218 11.2488C5.98218 11.2488 5.93432 11.2488 5.9104 11.2488L5.86254 11.2488C5.5754 11.3687 4.11579 11.9683 3.73294 11.8964C3.30224 11.8244 2.99117 11.8484 2.77582 11.2967C2.77582 11.2967 2.24941 11.7285 2.39297 12.472C2.53654 13.2154 2.94332 13.4073 2.94332 13.4073C2.94332 13.4073 2.99117 12.9276 3.80473 12.5438C4.02008 12.4479 4.23543 12.4 4.42685 12.4C4.16365 12.8556 4.02008 13.4312 4.06793 14.1988C4.09186 14.5345 4.16365 14.8463 4.28329 15.1581C4.47472 13.5272 5.81469 12.6398 7.1068 12.352Z" fill="#003E7D"/>
<path d="M8.20714 13.3594C9.11648 12.7598 9.76251 11.9683 10.0496 11.1289C9.78647 11.3927 9.49927 11.6086 9.23612 11.7765C8.75749 12.0883 8.2311 12.3042 7.68076 12.424C6.98685 12.5919 5.50332 13.0956 5.02475 14.4386C4.83333 14.9902 4.78547 15.6138 4.8094 16.1894C5.71866 18.8755 8.3029 20.0028 8.3029 20.0028C8.1593 19.5951 4.23513 15.9256 8.20714 13.3594Z" fill="#003E7D"/>
<path d="M13.6629 11.2956C12.4905 10.1684 11.5572 9.64075 10.9591 9.37695C10.9351 9.52087 10.8873 9.66479 10.8633 9.78467C13.8543 12.0631 14.4525 16.0683 10.0498 20.2654C10.9591 19.9536 13.8783 17.3874 14.7397 16.9317C14.8115 15.4207 14.309 13.9578 14.309 13.9578C14.309 13.9578 15.1704 15.2289 15.649 16.4041C16.0557 16.1163 16.3907 15.7565 16.6779 15.3488C15.8882 14.0298 14.7875 12.3989 13.6629 11.2956Z" fill="#003E7D"/>
<path d="M10.3132 6.93121C10.3132 6.93121 10.337 6.78731 10.2653 6.21171C10.1935 5.63612 9.88244 5.22839 9.88244 5.22839C9.88244 5.22839 9.02102 5.42027 8.66211 6.33163C8.66211 6.33163 8.92534 6.59545 9.35605 6.76333C9.88244 6.90723 10.2414 6.95519 10.3132 6.93121Z" fill="#003E7D"/>
<defs>
<linearGradient id="paint0_linear_51_116" x1="16.2652" y1="19.5838" x2="6.84501" y2="2.80088" gradientUnits="userSpaceOnUse">
<stop stop-color="#FFEA1B"/>
<stop offset="1" stop-color="#FAE47E"/>
</linearGradient>
</defs>
</svg>
